<?xml version="1.0" encoding="UTF-8" standalone="no"?>
<svg
   viewBox="0 0 32 32"
   version="1.1"
   id="svg7"
   sodipodi:docname="email.svg"
   inkscape:version="1.1.2 (0a00cf5339, 2022-02-04)"
   xmlns:inkscape="http://www.inkscape.org/namespaces/inkscape"
   xmlns:sodipodi="http://sodipodi.sourceforge.net/DTD/sodipodi-0.dtd"
   xmlns="http://www.w3.org/2000/svg"
   xmlns:svg="http://www.w3.org/2000/svg">
  <defs
     id="defs11" />
  <sodipodi:namedview
     id="namedview9"
     pagecolor="#505050"
     bordercolor="#eeeeee"
     borderopacity="1"
     inkscape:pageshadow="0"
     inkscape:pageopacity="0"
     inkscape:pagecheckerboard="0"
     showgrid="false"
     inkscape:zoom="24.15625"
     inkscape:cx="16"
     inkscape:cy="16"
     inkscape:window-width="1920"
     inkscape:window-height="1003"
     inkscape:window-x="0"
     inkscape:window-y="0"
     inkscape:window-maximized="1"
     inkscape:current-layer="svg7" />
  <title
     id="title2">2-Email</title>
  <g
     id="_2-Email"
     data-name="2-Email"
     style="fill:#000000">
    <path
       d="M 29,4 H 3 A 3,3 0 0 0 0,7 v 18 a 3,3 0 0 0 3,3 h 26 a 3,3 0 0 0 3,-3 V 7 A 3,3 0 0 0 29,4 Z M 28.28,6 16,14.77 3.72,6 Z M 2,24.59 V 7.23 l 10.12,7.23 z M 3.41,26 13.77,15.64 l 1.64,1.17 a 1,1 0 0 0 1.16,0 L 18.21,15.64 28.59,26 Z M 30,24.59 19.88,14.46 30,7.23 Z"
       id="path4"
       style="fill:#000000" />
  </g>
</svg>
