<?xml version="1.0" encoding="utf-8"?>
<!-- Generator: Adobe Illustrator 28.1.0, SVG Export Plug-In . SVG Version: 6.00 Build 0)  -->
<svg version="1.1" id="Logo" xmlns="http://www.w3.org/2000/svg" xmlns:xlink="http://www.w3.org/1999/xlink" x="0px" y="0px"
	 viewBox="0 0 248 204" style="enable-background:new 0 0 248 204;" xml:space="preserve">
<style type="text/css">
	.st0{fill:#1D9BF0;}
</style>
<g id="Logo_1_">
	<path id="white_background" class="st0" d="M26.2,151.7c-0.1-2.2-0.1-4.3-0.1-6.5C26.1,78.5,76.9,1.5,169.7,1.5v0
		c27.4,0,54.3,7.8,77.4,22.6c-4-0.5-8-0.7-12-0.7c-22.7,0-44.8,7.6-62.7,21.7c21.6,0.4,40.6,14.5,47.2,35.1
		c-7.6-1.5-15.4-1.2-22.8,0.9c23.6,4.8,40.5,25.5,40.5,49.5c0,0.2,0,0.4,0,0.6c-7-3.9-14.9-6.1-22.9-6.3
		c22.2,14.8,29,44.3,15.6,67.4c-25.6-31.5-63.5-50.7-104.1-52.8c4.1,17.5-1.5,35.9-14.6,48.2C91,206.9,59,205.9,39.9,185.6
		c-11.3,2.2-22.1,6.4-32.1,12.3c3.8-11.7,11.7-21.6,22.2-27.9c-10,1.2-19.8,3.9-29,7.9C7.8,167.7,16.3,158.9,26.2,151.7z"/>
</g>
</svg>
